<svg id="SvgjsSvg1006" width="5000px" height="1482.8349482124959px" xmlns="http://www.w3.org/2000/svg" version="1.1" xmlns:xlink="http://www.w3.org/1999/xlink" xmlns:svgjs="http://svgjs.com/svgjs" viewBox="0 0 374.125 110.953125"><defs id="SvgjsDefs1007"></defs><g id="SvgjsG1009" transform="rotate(0 260.0546875 48)"><svg height="92" viewBox="0 0 205.81201171875 205.81300354003906" xmlns="http://www.w3.org/2000/svg" version="1.1" xmlns:xlink="http://www.w3.org/1999/xlink" xmlns:svgjs="http://svgjs.com/svgjs" preserveAspectRatio="none" width="91.984375" x="214.0625" y="2"><g><svg data-color="1" xmlns="http://www.w3.org/2000/svg" xmlns:xlink="http://www.w3.org/1999/xlink" version="1.1" x="0px" y="0px" viewBox="4.842994689941406 4.343999862670898 205.81201171875 205.81300354003906" enable-background="new 0 0 216 216" xml:space="preserve" width="205.81201171875" height="205.81300354003906" fill="#e68a12"><g><path d="M195.381,53.284c3.268-2.532,5.188-6.409,5.188-10.579c0-7.389-6.012-13.4-13.4-13.4c-3.223,0-6.269,1.13-8.691,3.203   C159.285,14.337,134.214,4.344,107.75,4.344c-20.787,0-40.787,6.161-57.895,17.827c-2.076-1.349-4.467-2.057-6.963-2.057   c-3.666,0-7.162,1.575-9.608,4.326c-3.478,2.836-5.47,7.021-5.47,11.499c0,1.826,0.332,3.608,0.987,5.311   c-15.454,18.471-23.958,41.881-23.958,66c0,14.706,3.037,28.898,9.03,42.202c-1.315,1.086-2.483,2.292-3.479,3.594   c-7.418,9.707-5.556,23.64,4.15,31.059c3.894,2.975,8.535,4.548,13.423,4.548c4.358,0,8.691-1.313,12.306-3.714   c18.715,16.269,42.641,25.218,67.476,25.218c56.743,0,102.906-46.163,102.906-102.906   C210.656,88.119,205.378,69.484,195.381,53.284z M193.173,49.863c-2.877-4.273-6.091-8.353-9.575-12.151   c1.337-1.015,2.958-1.562,4.664-1.562c4.268,0,7.74,3.473,7.74,7.741C196.002,46.239,194.962,48.402,193.173,49.863z    M34.891,26.116c2.234-1.77,4.916-2.704,7.764-2.704c1.473,0,2.942,0.27,4.329,0.787c-5.031,3.688-9.734,7.836-14.018,12.366   c-0.413-1.146-0.628-2.36-0.628-3.583C32.338,30.467,33.244,28.033,34.891,26.116z M139.725,202.633   c-0.803-2.681-3.283-4.633-6.225-4.633c-3.591,0-6.5,2.909-6.5,6.5c0,0.501,0.062,0.987,0.17,1.455   c-6.286,1.234-12.777,1.889-19.42,1.889c-24.573,0-48.235-8.963-66.627-25.237l-0.696-0.615l-0.751,0.547   c-3.366,2.451-7.523,3.802-11.707,3.802c-4.376,0-8.532-1.408-12.019-4.073c-8.693-6.645-10.361-19.123-3.717-27.816   c1.049-1.373,2.316-2.629,3.769-3.734l0.738-0.562l-0.389-0.843c-6.102-13.235-9.195-27.388-9.195-42.062   c0-23.808,8.475-46.907,23.864-65.044l0.469-0.553l-0.293-0.662c-0.71-1.607-1.069-3.307-1.069-5.052   c0-0.349,0.015-0.696,0.043-1.04c0.227,1.498,0.716,2.952,1.448,4.281l0.778,1.413l1.088-1.19   c4.932-5.396,10.465-10.266,16.446-14.475l0.58-0.402c16.864-11.69,36.657-17.87,57.239-17.87c26.226,0,51.055,10.04,69.911,28.271   l0.822,0.795l0.804-0.812c2.1-2.124,4.771-3.293,7.753-3.293c6.114,0,10.96,4.974,10.96,11.088c0,0.031,0,0.062,0,0.093   c0-5.031-4.692-8.961-9.866-8.961c-2.7,0-5.173,1.058-7.075,2.977l-0.754,0.792l0.78,0.813c3.979,4.238,7.62,8.851,10.808,13.707   l0.949,1.465c10.139,16.045,15.5,34.6,15.5,53.659C208.342,151.545,179.565,189.242,139.725,202.633z"></path><path d="M17.501,151.717l-0.717-1.452l-1.141,1.149c-0.664,0.668-1.188,1.261-1.649,1.864c-6.414,8.393-4.804,20.439,3.588,26.854   c3.36,2.567,7.367,3.925,11.589,3.925c3.076,0,6.145-0.748,8.872-2.164l1.437-0.745l-1.171-1.118   C29.736,171.849,22.735,162.322,17.501,151.717z M29.171,181.744c-3.71,0-7.231-1.193-10.185-3.45   c-7.379-5.64-8.794-16.231-3.154-23.611c0.111-0.146,0.229-0.293,0.352-0.44c5.008,9.745,11.495,18.572,19.311,26.278   C33.49,181.324,31.333,181.744,29.171,181.744z"></path><circle cx="163.25" cy="132.25" r="4.25"></circle><circle cx="43.5" cy="71.5" r="6.5"></circle></g></svg></g><defs id="SvgjsDefs1008"></defs></svg></g><g id="SvgjsG1011" transform="rotate(0 187.0625 53.9765625)"><svg xmlns="http://www.w3.org/2000/svg" xmlns:xlink="http://www.w3.org/1999/xlink" width="374.125" viewBox="1.4600000381469727 26.8799991607666 374.1400146484375 107.95999908447266" overflow="visible" style="overflow: visible;" transform="" version="1.1" xmlns:svgjs="http://svgjs.com/svgjs" preserveAspectRatio="none" height="107.953125" x="0" y="0" fill="#000000" stroke="none"><path stroke="none" fill="#e68a12" d="M19.04 31.35L19.04 131.69L19.04 131.69Q19.48 132.28 19.48 132.93L19.48 132.93L19.48 132.93Q19.48 133.74 18.93 134.29L18.93 134.29L18.93 134.29Q18.38 134.84 17.58 134.84L17.58 134.84L17.58 134.84Q16.77 134.84 16.19 134.29L16.19 134.29L16.19 134.29Q15.60 133.74 15.60 132.93L15.60 132.93L15.60 132.93Q15.60 132.28 16.04 131.69L16.04 131.69L16.04 31.35L4.61 31.35L4.61 31.35Q4.10 31.86 3.44 31.86L3.44 31.86L3.44 31.86Q2.64 31.86 2.05 31.27L2.05 31.27L2.05 31.27Q1.46 30.69 1.46 29.88L1.46 29.88L1.46 29.88Q1.46 29.08 2.05 28.49L2.05 28.49L2.05 28.49Q2.64 27.91 3.44 27.91L3.44 27.91L3.44 27.91Q4.17 27.91 4.61 28.34L4.61 28.34L30.32 28.34L30.32 28.34Q30.98 27.91 31.64 27.91L31.64 27.91L31.64 27.91Q32.45 27.91 33.03 28.49L33.03 28.49L33.03 28.49Q33.62 29.08 33.62 29.88L33.62 29.88L33.62 29.88Q33.62 30.69 33.03 31.27L33.03 31.27L33.03 31.27Q32.45 31.86 31.64 31.86L31.64 31.86L31.64 31.86Q31.05 31.86 30.32 31.35L30.32 31.35L19.04 31.35ZM81.73 30.18L81.73 131.69L81.73 131.69Q82.17 132.28 82.17 132.93L82.17 132.93L82.17 132.93Q82.17 133.74 81.62 134.29L81.62 134.29L81.62 134.29Q81.07 134.84 80.26 134.84L80.26 134.84L80.26 134.84Q79.46 134.84 78.87 134.29L78.87 134.29L78.87 134.29Q78.29 133.74 78.29 132.93L78.29 132.93L78.29 132.93Q78.29 132.28 78.73 131.69L78.73 131.69L78.73 61.38L53.53 61.38L53.53 131.69L53.53 131.69Q53.97 132.28 53.97 132.93L53.97 132.93L53.97 132.93Q53.97 133.74 53.42 134.29L53.42 134.29L53.42 134.29Q52.87 134.84 52.07 134.84L52.07 134.84L52.07 134.84Q51.26 134.84 50.67 134.29L50.67 134.29L50.67 134.29Q50.09 133.74 50.09 132.93L50.09 132.93L50.09 132.93Q50.09 132.28 50.53 131.69L50.53 131.69L50.53 30.18L50.53 30.18Q50.09 29.52 50.09 28.86L50.09 28.86L50.09 28.86Q50.09 28.05 50.67 27.47L50.67 27.47L50.67 27.47Q51.26 26.88 52.07 26.88L52.07 26.88L52.07 26.88Q52.87 26.88 53.42 27.47L53.42 27.47L53.42 27.47Q53.97 28.05 53.97 28.86L53.97 28.86L53.97 28.86Q53.97 29.52 53.53 30.18L53.53 30.18L53.53 58.37L78.73 58.37L78.73 30.18L78.73 30.18Q78.29 29.52 78.29 28.86L78.29 28.86L78.29 28.86Q78.29 28.05 78.87 27.47L78.87 27.47L78.87 27.47Q79.46 26.88 80.26 26.88L80.26 26.88L80.26 26.88Q81.07 26.88 81.62 27.47L81.62 27.47L81.62 27.47Q82.17 28.05 82.17 28.86L82.17 28.86L82.17 28.86Q82.17 29.52 81.73 30.18L81.73 30.18ZM117.10 58.37L117.10 131.69L117.10 131.69Q117.61 132.35 117.61 132.93L117.61 132.93L117.61 132.93Q117.61 133.74 117.02 134.29L117.02 134.29L117.02 134.29Q116.44 134.84 115.63 134.84L115.63 134.84L115.63 134.84Q114.83 134.84 114.24 134.29L114.24 134.29L114.24 134.29Q113.65 133.74 113.65 132.93L113.65 132.93L113.65 132.93Q113.65 132.28 114.09 131.69L114.09 131.69L114.09 58.37L99.01 30.62L99.01 30.62Q97.76 30.18 97.76 28.86L97.76 28.86L97.76 28.86Q97.76 28.05 98.35 27.47L98.35 27.47L98.35 27.47Q98.93 26.88 99.74 26.88L99.74 26.88L99.74 26.88Q100.54 26.88 101.09 27.47L101.09 27.47L101.09 27.47Q101.64 28.05 101.64 28.86L101.64 28.86L101.64 28.86Q101.64 29.30 101.50 29.59L101.50 29.59L115.34 54.79L115.78 54.79L129.55 29.59L129.55 28.86L129.55 28.86Q129.55 28.05 130.13 27.47L130.13 27.47L130.13 27.47Q130.72 26.88 131.53 26.88L131.53 26.88L131.53 26.88Q132.33 26.88 132.92 27.47L132.92 27.47L132.92 27.47Q133.50 28.05 133.50 28.86L133.50 28.86L133.50 28.86Q133.50 29.52 133.10 29.96L133.10 29.96L133.10 29.96Q132.70 30.40 132.26 30.62L132.26 30.62L117.10 58.37ZM152.24 61.38L152.24 131.69L152.24 131.69Q152.68 132.28 152.68 132.93L152.68 132.93L152.68 132.93Q152.68 133.74 152.10 134.29L152.10 134.29L152.10 134.29Q151.51 134.84 150.71 134.84L150.71 134.84L150.71 134.84Q149.90 134.84 149.35 134.29L149.35 134.29L149.35 134.29Q148.80 133.74 148.80 132.93L148.80 132.93L148.80 132.93Q148.80 132.28 149.24 131.69L149.24 131.69L149.24 45.34L149.24 45.34Q149.24 42.11 149.97 39.07L149.97 39.07L149.97 39.07Q150.71 36.04 152.54 33.65L152.54 33.65L152.54 33.65Q154.37 31.27 157.41 29.81L157.41 29.81L157.41 29.81Q160.45 28.34 164.99 28.34L164.99 28.34L177.15 28.34L177.15 28.34Q177.81 27.91 178.46 27.91L178.46 27.91L178.46 27.91Q179.27 27.91 179.86 28.49L179.86 28.49L179.86 28.49Q180.44 29.08 180.44 29.88L180.44 29.88L180.44 29.88Q180.44 30.69 179.86 31.27L179.86 31.27L179.86 31.27Q179.27 31.86 178.46 31.86L178.46 31.86L178.46 31.86Q177.88 31.86 177.15 31.35L177.15 31.35L164.99 31.35L164.99 31.35Q161.25 31.35 158.80 32.56L158.80 32.56L158.80 32.56Q156.35 33.76 154.88 35.74L154.88 35.74L154.88 35.74Q153.42 37.72 152.83 40.25L152.83 40.25L152.83 40.25Q152.24 42.77 152.24 45.34L152.24 45.34L152.24 58.37L172.83 58.37L172.83 58.37Q173.48 57.93 174.14 57.93L174.14 57.93L174.14 57.93Q174.95 57.93 175.54 58.48L175.54 58.48L175.54 58.48Q176.12 59.03 176.12 59.84L176.12 59.84L176.12 59.84Q176.12 60.64 175.54 61.23L175.54 61.23L175.54 61.23Q174.95 61.82 174.14 61.82L174.14 61.82L174.14 61.82Q173.48 61.82 172.83 61.38L172.83 61.38L152.24 61.38ZM199.77 130.37L225.70 130.37L225.70 130.37Q226.36 129.93 227.09 129.93L227.09 129.93L227.09 129.93Q227.89 129.93 228.44 130.52L228.44 130.52L228.44 130.52Q228.99 131.10 228.99 131.91L228.99 131.91L228.99 131.91Q228.99 132.71 228.44 133.26L228.44 133.26L228.44 133.26Q227.89 133.81 227.09 133.81L227.09 133.81L227.09 133.81Q226.36 133.81 225.70 133.37L225.70 133.37L196.77 133.37L196.77 30.18L196.77 30.18Q196.33 29.52 196.33 28.86L196.33 28.86L196.33 28.86Q196.33 28.05 196.91 27.47L196.91 27.47L196.91 27.47Q197.50 26.88 198.30 26.88L198.30 26.88L198.30 26.88Q199.11 26.88 199.66 27.47L199.66 27.47L199.66 27.47Q200.21 28.05 200.21 28.86L200.21 28.86L200.21 28.86Q200.21 29.52 199.77 30.18L199.77 30.18L199.77 130.37ZM375.01 30.32L359.41 131.91L359.41 131.91Q359.70 132.50 359.70 132.93L359.70 132.93L359.70 132.93Q359.70 133.74 359.12 134.29L359.12 134.29L359.12 134.29Q358.53 134.84 357.73 134.84L357.73 134.84L357.73 134.84Q356.92 134.84 356.37 134.29L356.37 134.29L356.37 134.29Q355.82 133.74 355.82 132.93L355.82 132.93L355.82 132.93Q355.82 132.71 355.86 132.42L355.86 132.42L355.86 132.42Q355.90 132.13 356.12 131.91L356.12 131.91L341.83 39.04L327.62 131.91L327.62 131.91Q327.92 132.50 327.92 132.93L327.92 132.93L327.92 132.93Q327.92 133.74 327.33 134.29L327.33 134.29L327.33 134.29Q326.75 134.84 325.94 134.84L325.94 134.84L325.94 134.84Q325.13 134.84 324.58 134.29L324.58 134.29L324.58 134.29Q324.04 133.74 324.04 132.93L324.04 132.93L324.04 132.93Q324.04 132.71 324.07 132.42L324.07 132.42L324.07 132.42Q324.11 132.13 324.33 131.91L324.33 131.91L308.73 30.32L308.73 30.32Q308.14 29.74 308.14 28.86L308.14 28.86L308.14 28.86Q308.14 28.05 308.69 27.47L308.69 27.47L308.69 27.47Q309.24 26.88 310.05 26.88L310.05 26.88L310.05 26.88Q310.85 26.88 311.44 27.47L311.44 27.47L311.44 27.47Q312.02 28.05 312.02 28.86L312.02 28.86L312.02 28.86Q312.02 29.22 311.95 29.44L311.95 29.44L311.95 29.44Q311.88 29.66 311.73 29.88L311.73 29.88L325.94 122.75L340.22 29.88L340.22 29.88Q340.00 29.66 339.97 29.44L339.97 29.44L339.97 29.44Q339.93 29.22 339.93 28.86L339.93 28.86L339.93 28.86Q339.93 28.05 340.48 27.47L340.48 27.47L340.48 27.47Q341.03 26.88 341.83 26.88L341.83 26.88L341.83 26.88Q342.64 26.88 343.22 27.47L343.22 27.47L343.22 27.47Q343.81 28.05 343.81 28.86L343.81 28.86L343.81 28.86Q343.81 29.22 343.74 29.44L343.74 29.44L343.74 29.44Q343.66 29.66 343.52 29.88L343.52 29.88L357.73 122.75L372.01 29.88L372.01 29.88Q371.79 29.66 371.75 29.44L371.75 29.44L371.75 29.44Q371.72 29.22 371.72 28.86L371.72 28.86L371.72 28.86Q371.72 28.05 372.30 27.47L372.30 27.47L372.30 27.47Q372.89 26.88 373.69 26.88L373.69 26.88L373.69 26.88Q374.50 26.88 375.05 27.47L375.05 27.47L375.05 27.47Q375.60 28.05 375.60 28.86L375.60 28.86L375.60 28.86Q375.60 29.30 375.41 29.63L375.41 29.63L375.41 29.63Q375.23 29.96 375.01 30.32L375.01 30.32Z" transform="rotate(0 188.53000736236572 80.85999870300293)"></path><defs id="SvgjsDefs1010"></defs></svg></g></svg>